<svg width="32" height="32" viewBox="0 0 32 32" fill="none" xmlns="http://www.w3.org/2000/svg">
  <defs>
    <linearGradient id="lg1" x1="0%" y1="0%" x2="100%" y2="100%">
      <stop offset="0%" stop-color="#3b82f6"/>
      <stop offset="100%" stop-color="#06b6d4"/>
    </linearGradient>
    <linearGradient id="lg2" x1="100%" y1="0%" x2="0%" y2="100%">
      <stop offset="0%" stop-color="#f472b6"/>
      <stop offset="100%" stop-color="#a78bfa"/>
    </linearGradient>
    <linearGradient id="lg3" x1="0%" y1="0%" x2="100%" y2="0%">
      <stop offset="0%" stop-color="#fbbf24"/>
      <stop offset="100%" stop-color="#fb923c"/>
    </linearGradient>
  </defs>

  <!-- 动态几何背景 - 层叠的卡片 -->
  <rect x="4" y="8" width="20" height="20" rx="3" fill="url(#lg1)" opacity="0.15" transform="rotate(-6 14 18)"/>
  <rect x="6" y="6" width="20" height="20" rx="3" fill="url(#lg1)" opacity="0.3" transform="rotate(3 16 16)"/>
  <rect x="8" y="4" width="20" height="20" rx="3" fill="url(#lg1)"/>

  <!-- D 字母 - 代表 DocKit -->
  <path d="M12 10 L12 22 L17 22 C21 22 24 19 24 16 C24 13 21 10 17 10 L12 10 Z M15 13 L17 13 C19.2 13 21 14.3 21 16 C21 17.7 19.2 19 17 19 L15 19 L15 13 Z" fill="white"/>

  <!-- 右上角光点群 - 代表精华/知识汇聚 -->
  <circle cx="26" cy="6" r="5" fill="url(#lg3)" opacity="0.9"/>
  <circle cx="26" cy="6" r="2.5" fill="white" opacity="0.8"/>

  <!-- 小光点装饰 -->
  <circle cx="28" cy="10" r="1.5" fill="url(#lg2)" opacity="0.7"/>
  <circle cx="24" cy="3" r="1" fill="url(#lg3)" opacity="0.6"/>
  <circle cx="29" cy="4" r="1" fill="url(#lg2)" opacity="0.5"/>
</svg>
